<svg width="80" height="80" fill="none" xmlns="http://www.w3.org/2000/svg"><path d="M41.8 68.8c17.122 0 31-13.878 31-31 0-17.12-13.878-31-31-31-17.12 0-31 13.88-31 31 0 17.122 13.88 31 31 31Z" fill="#E8F1FF" stroke="#BBD6FF" stroke-width=".8"/><path fill-rule="evenodd" clip-rule="evenodd" d="m37.864 12.8 12.938 15.424v35.63c0 .593-.24 1.13-.63 1.518a2.14 2.14 0 0 1-1.517.629H11.748a2.14 2.14 0 0 1-1.518-.629 2.14 2.14 0 0 1-.628-1.518V14.948c0-.593.24-1.13.628-1.518a2.14 2.14 0 0 1 1.518-.63h26.116Z" fill="#fff" stroke="#BBD6FF" stroke-width=".8"/><path d="M19.152 18.068v1.133a.403.403 0 0 1-.226.383c-1.198.686-2.393 1.375-3.59 2.059a.62.62 0 0 0-.345.588c.004 1.503.004 3.005 0 4.506a.63.63 0 0 0 .347.6c1.309.747 2.615 1.498 3.92 2.251a.644.644 0 0 0 .696 0c1.308-.755 2.618-1.507 3.93-2.257a.625.625 0 0 0 .34-.592l-.002-1.313v-4.971l1.25.717v6.74l-5.865 3.37-5.865-3.37v-6.74l5.41-3.104Zm-2.173 9.156-.008-.004-.073-.042-.155-.09-.005-.002-.084-.048-.003-.002-.09-.052-.003-.002-.031-.017-.036-.02a2.74 2.74 0 0 1-.037-.023l-.026-.015-.058-.034c.036-.022.053-.034.07-.043l1.473-.846.056-.032 1.398-.807a.647.647 0 0 1 .066-.034l.022-.009a.544.544 0 0 1 .013-.005l.005-.002a.38.38 0 0 1 .253-.003c.04.012.08.03.12.053l2.89 1.664.031.018.005.003.07.043-.058.034-.026.015-.037.022c-.954.549-1.91 1.094-2.862 1.646a.703.703 0 0 1-.025.015l-.026.012-.012.006a.531.531 0 0 1-.092.032.47.47 0 0 1-.351-.065l-1.43-.824-.747-.43-.07-.04-.057-.032-.07-.04Zm2.17-6.718v3.423a.46.46 0 0 1-.255.444c-.957.544-1.91 1.095-2.865 1.643-.034.019-.068.035-.123.063v-.143c0-1.09.005-2.179 0-3.269a.476.476 0 0 1 .268-.46c.955-.541 1.904-1.091 2.856-1.638.034-.02.069-.036.12-.063Zm.915.002c.052.027.087.044.12.063l1.903 1.092.953.544c.173.098.259.225.266.412v3.456c-.043-.02-.074-.032-.102-.048l-2.013-1.155-.175-.101-.729-.418-.013-.008a.442.442 0 0 1-.21-.36v-3.477Zm-.001-2.444 3.248 1.866v1.385a1144.49 1144.49 0 0 0-3.023-1.733.402.402 0 0 1-.225-.384v-1.134Z" fill="#BBD6FF"/><path d="M13.672 38.365h20.846M13.688 46.365l32.893.213M13.688 54.578l32.893.213" stroke="#DDEBFF" stroke-width="1.273"/><path fill-rule="evenodd" clip-rule="evenodd" d="M38.05 12.4v13.98c0 .938.761 1.698 1.699 1.698h11.453L38.051 12.4Z" fill="#C0C3D1"/><path fill-rule="evenodd" clip-rule="evenodd" d="m68.055 19.735 5.776 15.877-13.034 35.81a2.14 2.14 0 0 1-1.11 1.212 2.14 2.14 0 0 1-1.642.072l-34.68-12.623a2.14 2.14 0 0 1-1.212-1.11 2.14 2.14 0 0 1-.071-1.641l16.727-45.957a2.14 2.14 0 0 1 1.11-1.212 2.14 2.14 0 0 1 1.641-.071l26.495 9.643Z" fill="#fff" stroke="#BBD6FF" stroke-width=".8"/><path d="m40.008 21.092 19.589 7.13M36.953 29.285l26.044 9.59M33.512 39.084l30.837 11.45M30.05 48.598l30.838 11.45" stroke="#DDEBFF" stroke-width="1.273"/><path fill-rule="evenodd" clip-rule="evenodd" d="m68.368 19.424-4.781 10.728a1.698 1.698 0 0 0 1.023 2.305l9.647 3.155-5.89-16.188Z" fill="#5D9EFF"/></svg>