<svg width="38" height="38" fill="none" xmlns="http://www.w3.org/2000/svg"><path d="M16 29c7.18 0 13-5.82 13-13S23.18 3 16 3 3 8.82 3 16s5.82 13 13 13Z" fill="#fff" stroke="#BBD6FF" stroke-width="3.2"/><path d="M16.405 8.602c-1.438 0-2.565.415-3.38 1.265-.816.831-1.224 1.959-1.224 3.403h2.04c0-.87.174-1.543.524-2.018.389-.574 1.03-.85 1.904-.85.7 0 1.263.197 1.651.593.37.396.563.93.563 1.622 0 .514-.194.989-.544 1.444l-.33.376c-1.204 1.088-1.942 1.899-2.195 2.453-.272.514-.389 1.147-.389 1.879v.336h2.08v-.336c0-.475.096-.91.31-1.306.175-.356.447-.712.816-1.029.913-.81 1.457-1.325 1.632-1.542.485-.633.738-1.444.738-2.413 0-1.187-.389-2.137-1.166-2.83-.777-.711-1.787-1.047-3.03-1.047Zm-.35 11.571c-.388 0-.738.119-1.01.396-.272.257-.408.593-.408 1.008 0 .396.136.732.408 1.01a1.38 1.38 0 0 0 1.01.415c.389 0 .738-.139 1.01-.396.272-.277.428-.613.428-1.029 0-.415-.136-.751-.408-1.008-.272-.277-.622-.396-1.03-.396Z" fill="#5D9EFF"/><path d="m26 25.602 8.8 8.8" stroke="#BBD6FF" stroke-width="4" stroke-linecap="round" stroke-linejoin="round"/></svg>